<svg width="1024" height="1366" viewBox="0 0 1024 1366" fill="none" xmlns="http://www.w3.org/2000/svg">
<rect width="1024" height="1366" fill="white"/>
<path d="M501.183 299.404C485.921 300.421 471.057 303.96 456.679 310.065C452.919 311.614 442.7 316.878 441.417 317.895C440.753 318.426 440.046 318.824 439.869 318.824C439.028 318.824 427.747 326.92 422.66 331.167C418.9 334.264 409.742 343.598 406.203 347.933C401.868 353.153 397.665 359.037 395.232 363.284C389.791 372.662 385.986 380.537 382.89 388.986C377.758 403.01 374.352 425.483 375.104 440.48C375.989 458.352 379.793 473.968 387.402 491.133C390.322 497.724 398.594 511.349 402.841 516.614C407.354 522.188 413.68 529.177 416.953 532.097C420.448 535.282 421.466 536.167 426.863 540.679C435.489 547.934 450.574 556.207 464.908 561.56C475.259 565.453 493.22 568.771 504.589 568.903C510.827 568.992 511.137 568.948 512.11 567.974C513.614 566.47 513.525 563.285 511.977 561.958C510.915 561.073 510.163 560.941 504.678 560.675C490.256 559.967 472.782 556.163 462.032 551.429C446.637 544.617 437.834 539.175 426.42 529.354C406.248 512.013 391.251 486.045 385.765 458.927C383.819 449.416 383.111 433.048 384.173 422.342C386.119 402.302 392.357 383.899 403.107 366.602C412.087 352.18 424.916 338.82 438.586 329.707C448.938 322.762 458.006 318.117 467.12 315.064C469.066 314.401 471.057 313.693 471.543 313.472C473.224 312.72 484.372 310.065 490.123 309.048C495.299 308.119 497.157 308.03 509.367 308.03C523.966 308.03 525.072 308.119 537.016 310.906C554.534 314.976 572.451 323.868 587.005 335.591C590.323 338.334 596.826 345.544 599.48 349.437C604.612 357.135 607.443 365.098 608.505 374.83C609.346 382.97 607.93 392.879 604.656 401.063C597.49 418.98 581.652 432.119 562.232 436.233C557.543 437.206 556.791 437.516 555.729 438.71C553.605 441.055 553.959 442.603 557.852 448.708C559.71 451.628 561.568 454.547 562.011 455.3C562.409 456.007 564.532 459.369 566.7 462.687C568.868 466.049 572.23 471.27 574.176 474.278C576.123 477.33 578.644 481.267 579.794 483.037C580.945 484.806 582.316 486.974 582.803 487.815C583.687 489.363 593.862 504.935 595.632 507.501C596.516 508.739 598.286 511.526 603.683 520.02C604.966 522.055 606.78 524.842 607.665 526.214C608.549 527.585 610.009 529.974 610.894 531.522C611.823 533.07 613.194 535.017 613.991 535.813C615.229 537.14 615.716 537.362 617.485 537.362C619.211 537.362 619.83 537.14 620.892 536.079C623.104 533.867 622.75 532.274 618.768 525.948C614.079 518.56 608.549 509.934 604.258 503.298C602.267 500.246 599.259 495.556 597.534 492.902C595.853 490.204 593.331 486.355 592.004 484.276C590.677 482.196 586.342 475.428 582.404 469.235C574.353 456.715 573.38 455.211 569.797 449.726C567.187 445.7 566.788 444.461 568.116 444.461C570.947 444.461 581.431 440.037 587.226 436.41C594.658 431.721 603.373 422.917 607.974 415.485C611.867 409.115 615.406 400.223 617.087 392.481C618.061 387.969 618.414 377.396 617.795 372.132C616.645 363.24 613.416 353.994 608.815 346.252C597.578 327.628 571.433 310.95 541.219 303.164C533.388 301.173 525.426 299.935 516.445 299.36C508.527 298.873 508.925 298.873 501.183 299.404Z" fill="#090D3B"/>
<path d="M505.872 324.841C503.528 326.478 503.616 324.974 503.616 374.52V420.484L502.51 420.749C500.873 421.148 495.83 426.102 494.68 428.447C493.839 430.172 493.662 431.234 493.662 434.729C493.662 438.445 493.795 439.241 494.901 441.453C496.405 444.55 499.413 447.735 501.802 448.752L503.616 449.549V495.247C503.616 544.13 503.528 542.139 505.74 544.13C506.845 545.148 509.323 545.28 510.871 544.484C513.437 543.068 513.349 545.148 513.349 495.379V449.77L515.162 448.841C517.684 447.558 521.179 443.975 522.24 441.586C525.647 433.888 522.904 425.439 515.693 421.369L513.349 420.042L513.26 373.37L513.127 326.699L511.667 325.416C509.986 323.912 507.553 323.691 505.872 324.841ZM511.402 428.049C517.197 430.659 517.418 438.445 511.8 441.718C510.385 442.515 509.632 442.647 508.084 442.426C503.882 441.851 501.448 439.064 501.36 434.773C501.271 431.898 502.776 429.509 505.474 428.137C507.774 426.987 509.057 426.987 511.402 428.049Z" fill="#090D3B"/>
<path d="M521.223 588.059C519.188 589.12 518.613 591.067 519.586 593.235C520.205 594.606 521.71 595.314 523.966 595.314C527.372 595.314 528.743 591.2 526.222 588.634C524.762 587.174 523.125 586.997 521.223 588.059Z" fill="#090D3B"/>
<path d="M388.154 610.089V628.935H391.693H395.232V623.184V617.433H400.054H404.876L405.761 618.848C406.602 620.264 408.946 623.759 411.379 627.254L412.529 628.935H416.29C418.325 628.935 420.006 628.802 420.006 628.625C420.006 628.492 418.325 625.838 416.29 622.786C414.211 619.733 412.441 616.902 412.264 616.548C412.131 616.106 412.529 615.575 413.635 615C417.794 612.744 420.094 605.754 418.59 599.826C417.971 597.304 415.051 594.252 411.822 592.659C409.698 591.598 409.212 591.553 398.904 591.421L388.154 591.244V610.089ZM408.592 598.322C409.654 598.853 410.804 599.738 411.07 600.313C412.839 604.029 412.485 607.081 409.964 609.381C407.796 611.284 406.115 611.682 400.231 611.682H395.232V604.338V596.951L400.895 597.172C405.54 597.349 406.955 597.57 408.592 598.322Z" fill="#090D3B"/>
<path d="M500.873 593.456L497.865 593.588V596.862V600.18H495.653H493.441V602.79V605.444L495.565 605.577L497.644 605.71L497.909 614.557C498.131 623.14 498.175 623.449 499.281 625.219C501.581 628.802 507.199 630.262 512.021 628.581C514.72 627.652 514.764 627.431 513.481 624.378C512.862 623.007 512.596 622.741 511.844 622.963C508.969 623.803 507.774 623.715 506.359 622.52L504.943 621.326V613.673V605.975L508.615 605.842L512.243 605.71L512.375 602.923L512.508 600.18H508.748H504.987L504.855 596.774C504.766 594.916 504.545 593.367 504.28 593.323C504.058 593.323 502.51 593.367 500.873 593.456Z" fill="#090D3B"/>
<path d="M438.365 599.649C430.358 600.224 424.562 606.064 424.076 613.894C423.722 620.043 426.774 625.175 432.392 627.785C434.958 628.979 435.71 629.156 439.471 629.156C443.231 629.156 443.939 629.023 446.283 627.873C449.247 626.413 451.725 624.069 452.919 621.547C453.406 620.618 453.937 619.512 454.113 619.114C454.335 618.716 454.423 616.415 454.379 614.027C454.29 610.134 454.158 609.426 452.963 607.302C451.592 604.781 448.318 601.861 445.708 600.755C443.806 599.959 440.665 599.472 438.365 599.649ZM442.788 606.329C448.186 608.762 449.38 616.283 445.045 620.751C441.196 624.776 435.445 624.334 432.437 619.777C427.438 612.213 434.781 602.657 442.788 606.329Z" fill="#090D3B"/>
<path d="M546.748 600.445C545.775 600.799 544.227 601.684 543.342 602.436L541.661 603.763V601.949V600.18H538.343H535.025V614.557V628.935H538.52H542.059L542.192 619.954C542.325 609.957 542.546 609.205 545.466 606.993C546.571 606.108 547.677 605.71 549.314 605.621C552.101 605.4 553.384 606.019 555.021 608.364L556.26 610.134L556.304 619.512L556.348 628.935H559.887H563.426L563.249 618.627C563.117 608.629 563.072 608.32 561.966 605.887C560.728 603.277 558.914 601.551 556.127 600.401C554.092 599.561 549.137 599.561 546.748 600.445Z" fill="#090D3B"/>
<path d="M580.148 600.136C571.301 603.011 566.921 612.744 570.814 620.751C572.539 624.201 574.265 625.971 577.848 627.696C580.591 629.068 581.122 629.156 585.236 629.156C589.35 629.156 589.881 629.068 592.579 627.74C594.172 626.944 595.809 625.927 596.207 625.484C596.915 624.688 596.87 624.555 595.145 622.609C594.172 621.459 593.199 620.53 593.022 620.53C592.845 620.53 592.093 621.016 591.385 621.635C590.19 622.653 587.005 623.626 584.882 623.626C581.652 623.626 578.158 621.37 576.565 618.229L575.725 616.548L584.661 616.46C589.615 616.415 594.747 616.371 596.074 616.371L598.507 616.327L598.463 613.451C598.419 607.7 595.587 603.055 590.854 600.976C588.598 599.959 582.183 599.472 580.148 600.136ZM588.332 606.108C589.925 606.771 592.093 609.735 592.093 611.24C592.093 612.08 591.827 612.124 584.13 612.124C579.75 612.124 576.167 612.036 576.167 611.903C576.167 611.77 576.432 611.018 576.786 610.222C577.583 608.364 579.219 606.506 580.591 605.975C582.228 605.312 586.607 605.4 588.332 606.108Z" fill="#090D3B"/>
<path d="M611.779 600.799C608.726 602.082 605.718 605.046 604.391 608.143C603.152 610.974 602.843 616.194 603.772 619.291C604.789 622.786 607.266 625.75 610.717 627.608C613.415 629.068 613.769 629.156 617.972 629.156C622.086 629.156 622.573 629.068 625.094 627.74C628.324 626.059 631.686 622.476 632.438 619.954C632.748 618.937 632.969 616.283 633.013 614.115C633.013 609.293 631.907 606.373 629.164 603.896C626.112 601.153 623.015 600.003 618.414 599.826C615.008 599.738 614.035 599.87 611.779 600.799ZM621.157 605.975C624.298 607.17 626.245 610.399 626.289 614.557C626.377 617.875 625.316 620.176 622.927 621.901C615.495 627.298 606.736 618.495 610.894 609.735C612.531 606.329 617.397 604.515 621.157 605.975Z" fill="#090D3B"/>
<path d="M460.395 609.957C460.661 621.237 461.103 623.14 464.067 626.104C466.058 628.094 469.331 629.377 472.517 629.377C474.95 629.377 479.241 627.829 480.701 626.413L481.939 625.219V627.077V628.935H485.257H488.575V614.557V600.18H485.08H481.585L481.408 609.116C481.276 618.052 481.276 618.096 480.081 619.954C478.533 622.343 476.586 623.361 473.888 623.272C470.88 623.14 470.039 623.007 470.128 622.741C470.172 622.609 469.818 622.034 469.287 621.503C467.695 619.777 467.341 617.566 467.341 608.629V600.18H463.757H460.174L460.395 609.957Z" fill="#090D3B"/>
<path d="M519.896 613.451C519.852 620.751 519.807 627.165 519.807 627.696C519.763 628.669 519.94 628.714 523.214 628.846L526.62 628.979V614.557V600.18H523.302H519.984L519.896 613.451Z" fill="#090D3B"/>
</svg>
